<?xml version="1.0" encoding="UTF-8"?>
<svg version="1.1" xmlns="http://www.w3.org/2000/svg" width="47" height="47">
<path d="M0 0 C15.51 0 31.02 0 47 0 C47 15.51 47 31.02 47 47 C31.49 47 15.98 47 0 47 C0 31.49 0 15.98 0 0 Z " fill="#FECF68" transform="translate(0,0)"/>
<path d="M0 0 C15.51 0 31.02 0 47 0 C47 2.97 47 5.94 47 9 C43.10287705 8.97715217 39.20867064 8.8997778 35.3125 8.8125 C34.20970703 8.80669922 33.10691406 8.80089844 31.97070312 8.79492188 C23.60240895 8.56738518 23.60240895 8.56738518 20.3125 5.46875 C19.549375 4.6540625 18.78625 3.839375 18 3 C14.87694315 2.37687492 11.85588288 2.52495471 8.6875 2.6875 C7.43356445 2.72133789 7.43356445 2.72133789 6.15429688 2.75585938 C4.10208851 2.8144939 2.05080798 2.90416785 0 3 C0 2.01 0 1.02 0 0 Z " fill="#FFFDF9" transform="translate(0,0)"/>
<path d="M0 0 C13.53 0 27.06 0 41 0 C41 0.99 41 1.98 41 3 C39.33710937 3.03867188 39.33710937 3.03867188 37.640625 3.078125 C36.17704453 3.13441656 34.71350438 3.19176367 33.25 3.25 C32.15558594 3.27126953 32.15558594 3.27126953 31.0390625 3.29296875 C28.58908427 3.3649626 28.58908427 3.3649626 25 4 C24.08734375 5.00546875 24.08734375 5.00546875 23.15625 6.03125 C19.50438241 9.36556389 14.98918983 8.41407315 10.25 8.25 C8.77466797 8.22292969 8.77466797 8.22292969 7.26953125 8.1953125 C4.84536217 8.14824126 2.42317941 8.08250742 0 8 C0 5.36 0 2.72 0 0 Z " fill="#C5F0F5" transform="translate(3,11)"/>
<path d="M0 0 C1.32 0.33 2.64 0.66 4 1 C4 12.55 4 24.1 4 36 C3.01 36 2.02 36 1 36 C1 25.11 1 14.22 1 3 C-12.53 3 -26.06 3 -40 3 C-40 2.67 -40 2.34 -40 2 C-26.8 1.67 -13.6 1.34 0 1 C0 0.67 0 0.34 0 0 Z " fill="#F6C347" transform="translate(43,8)"/>
<path d="M0 0 C8.25 0 16.5 0 25 0 C21 5 21 5 18.61816406 5.56762695 C17.75932617 5.54144287 16.90048828 5.51525879 16.015625 5.48828125 C15.08105469 5.47216797 14.14648438 5.45605469 13.18359375 5.43945312 C12.21550781 5.39755859 11.24742188 5.35566406 10.25 5.3125 C9.26644531 5.28994141 8.28289063 5.26738281 7.26953125 5.24414062 C4.8448053 5.18528805 2.42318017 5.10313431 0 5 C0 3.35 0 1.7 0 0 Z " fill="#FFFEFE" transform="translate(3,14)"/>
<path d="M0 0 C1.32 0.33 2.64 0.66 4 1 C4 2.98 4 4.96 4 7 C3.01 6.67 2.02 6.34 1 6 C0.67 4.02 0.34 2.04 0 0 Z " fill="#FCA93E" transform="translate(43,8)"/>
</svg>
