<svg width="81" height="20" viewBox="0 0 81 20" fill="none" xmlns="http://www.w3.org/2000/svg">
<g clip-path="url(#clip0_4_560)">
<rect x="0.166016" y="0.0517578" width="79.9814" height="19.4549" rx="4" fill="#226ABE"/>
<path d="M25.9273 12.1318C25.3993 12.1318 24.954 12.0571 24.5913 11.9078C24.234 11.7584 23.9646 11.5478 23.7833 11.2758C23.602 10.9984 23.5113 10.6731 23.5113 10.2998V10.2518H24.3753V10.3798C24.3753 10.5931 24.4233 10.7718 24.5193 10.9158C24.6153 11.0544 24.7753 11.1611 24.9993 11.2358C25.2233 11.3051 25.5326 11.3398 25.9273 11.3398C26.2686 11.3398 26.5406 11.3158 26.7433 11.2678C26.946 11.2144 27.09 11.1344 27.1753 11.0278C27.266 10.9158 27.3113 10.7771 27.3113 10.6118C27.3113 10.3771 27.2366 10.2064 27.0873 10.0998C26.938 9.99309 26.6953 9.90776 26.3593 9.84376L25.0473 9.62776C24.7486 9.56909 24.482 9.48376 24.2473 9.37176C24.0126 9.25442 23.8286 9.09976 23.6953 8.90776C23.5673 8.71042 23.5033 8.46509 23.5033 8.17176C23.5033 7.97976 23.546 7.79042 23.6313 7.60376C23.7166 7.41709 23.85 7.24909 24.0313 7.09976C24.2126 6.95042 24.4473 6.83309 24.7353 6.74776C25.0286 6.65709 25.386 6.61176 25.8073 6.61176C26.33 6.61176 26.7593 6.69176 27.0953 6.85176C27.4313 7.01176 27.6793 7.23042 27.8393 7.50776C28.0046 7.77976 28.0873 8.09176 28.0873 8.44376V8.49176H27.2313V8.38776C27.2313 8.16909 27.1833 7.98776 27.0873 7.84376C26.9913 7.69442 26.834 7.58509 26.6153 7.51576C26.3966 7.44109 26.1006 7.40376 25.7273 7.40376C25.402 7.40376 25.138 7.43042 24.9353 7.48376C24.738 7.53709 24.594 7.61709 24.5033 7.72376C24.4126 7.82509 24.3673 7.95842 24.3673 8.12376C24.3673 8.27309 24.3993 8.39576 24.4633 8.49176C24.5273 8.58776 24.626 8.66509 24.7593 8.72376C24.8926 8.77709 25.0633 8.82776 25.2713 8.87576L26.5753 9.09976C26.9326 9.16376 27.2286 9.25976 27.4633 9.38776C27.7033 9.51576 27.882 9.67842 27.9993 9.87576C28.1166 10.0731 28.1753 10.3024 28.1753 10.5638C28.1753 10.8358 28.098 11.0918 27.9433 11.3318C27.7886 11.5718 27.546 11.7664 27.2153 11.9158C26.8846 12.0598 26.4553 12.1318 25.9273 12.1318ZM31.3967 12.1318C30.842 12.1318 30.3567 12.0198 29.9407 11.7958C29.5247 11.5664 29.202 11.2464 28.9727 10.8358C28.7433 10.4198 28.6287 9.93176 28.6287 9.37176C28.6287 8.81176 28.7433 8.32642 28.9727 7.91576C29.202 7.49976 29.5247 7.17976 29.9407 6.95576C30.3567 6.72642 30.842 6.61176 31.3967 6.61176C31.9033 6.61176 32.3487 6.69709 32.7327 6.86776C33.122 7.03309 33.4233 7.27309 33.6367 7.58776C33.8553 7.89709 33.9647 8.26776 33.9647 8.69976V8.80376H33.0127V8.69976C33.0127 8.28909 32.8793 7.97709 32.6127 7.76376C32.3513 7.55042 31.9487 7.44376 31.4047 7.44376C30.9833 7.44376 30.634 7.51309 30.3567 7.65176C30.0847 7.78509 29.8793 7.99309 29.7407 8.27576C29.6073 8.55842 29.5407 8.92376 29.5407 9.37176C29.5407 9.81442 29.6073 10.1798 29.7407 10.4678C29.8793 10.7504 30.0847 10.9611 30.3567 11.0998C30.634 11.2331 30.9833 11.2998 31.4047 11.2998C31.9487 11.2998 32.3513 11.1931 32.6127 10.9798C32.8793 10.7664 33.0127 10.4544 33.0127 10.0438V9.93976H33.9647V10.0438C33.9647 10.4704 33.8553 10.8411 33.6367 11.1558C33.4233 11.4704 33.122 11.7131 32.7327 11.8838C32.3487 12.0491 31.9033 12.1318 31.3967 12.1318ZM39.4732 12.0518H38.6172V6.69176H39.4732V12.0518ZM35.4652 12.0518H34.6012V6.69176H35.4652V12.0518ZM39.0412 9.73976H34.8812V8.96376H39.0412V9.73976ZM41.1449 12.0518H40.2809V6.69176H41.1449V12.0518ZM44.5689 12.0518H40.5449V11.2758H44.5689V12.0518ZM44.4489 9.73976H40.5449V8.97176H44.4489V9.73976ZM44.5689 7.46776H40.5449V6.69176H44.5689V7.46776ZM46.1058 12.0518H45.2418V6.69176H46.4178L47.9618 9.79576L48.4498 10.9078H48.5138L48.9858 9.79576L50.5138 6.69176H51.6898V12.0518H50.8258V8.76376L50.8578 7.98776H50.7938L50.4658 8.76376L48.9858 11.7318H47.9458L46.4658 8.76376L46.1378 7.98776H46.0738L46.1058 8.76376V12.0518ZM53.3558 12.0518H52.4918V6.69176H53.3558V12.0518ZM56.7798 12.0518H52.7558V11.2758H56.7798V12.0518ZM56.6598 9.73976H52.7558V8.97176H56.6598V9.73976ZM56.7798 7.46776H52.7558V6.69176H56.7798V7.46776Z" fill="black"/>
</g>
<defs>
<clipPath id="clip0_4_560">
<rect x="0.166016" y="0.0517578" width="79.9814" height="19.4549" rx="4" fill="white"/>
</clipPath>
</defs>
</svg>
