<svg width="81" height="21" viewBox="0 0 81 21" fill="none" xmlns="http://www.w3.org/2000/svg">
<g clip-path="url(#clip0_4_546)">
<rect x="0.0830078" y="0.797852" width="79.9814" height="19.4549" rx="4" fill="#A883C5"/>
<path d="M29.731 12.8779C29.203 12.8779 28.7577 12.8032 28.395 12.6539C28.0377 12.5045 27.7683 12.2939 27.587 12.0219C27.4057 11.7445 27.315 11.4192 27.315 11.0459V10.9979H28.179V11.1259C28.179 11.3392 28.227 11.5179 28.323 11.6619C28.419 11.8005 28.579 11.9072 28.803 11.9819C29.027 12.0512 29.3363 12.0859 29.731 12.0859C30.0723 12.0859 30.3443 12.0619 30.547 12.0139C30.7497 11.9605 30.8937 11.8805 30.979 11.7739C31.0697 11.6619 31.115 11.5232 31.115 11.3579C31.115 11.1232 31.0403 10.9525 30.891 10.8459C30.7417 10.7392 30.499 10.6539 30.163 10.5899L28.851 10.3739C28.5523 10.3152 28.2857 10.2299 28.051 10.1179C27.8163 10.0005 27.6323 9.84585 27.499 9.65385C27.371 9.45652 27.307 9.21118 27.307 8.91785C27.307 8.72585 27.3497 8.53652 27.435 8.34985C27.5203 8.16318 27.6537 7.99518 27.835 7.84585C28.0163 7.69652 28.251 7.57918 28.539 7.49385C28.8323 7.40318 29.1897 7.35785 29.611 7.35785C30.1337 7.35785 30.563 7.43785 30.899 7.59785C31.235 7.75785 31.483 7.97652 31.643 8.25385C31.8083 8.52585 31.891 8.83785 31.891 9.18985V9.23785H31.035V9.13385C31.035 8.91518 30.987 8.73385 30.891 8.58985C30.795 8.44052 30.6377 8.33118 30.419 8.26185C30.2003 8.18718 29.9043 8.14985 29.531 8.14985C29.2057 8.14985 28.9417 8.17652 28.739 8.22985C28.5417 8.28318 28.3977 8.36318 28.307 8.46985C28.2163 8.57118 28.171 8.70452 28.171 8.86985C28.171 9.01918 28.203 9.14185 28.267 9.23785C28.331 9.33385 28.4297 9.41118 28.563 9.46985C28.6963 9.52318 28.867 9.57385 29.075 9.62185L30.379 9.84585C30.7363 9.90985 31.0323 10.0059 31.267 10.1339C31.507 10.2619 31.6857 10.4245 31.803 10.6219C31.9203 10.8192 31.979 11.0485 31.979 11.3099C31.979 11.5819 31.9017 11.8379 31.747 12.0779C31.5923 12.3179 31.3497 12.5125 31.019 12.6619C30.6883 12.8059 30.259 12.8779 29.731 12.8779ZM35.2004 12.8779C34.6457 12.8779 34.1604 12.7659 33.7444 12.5419C33.3284 12.3125 33.0057 11.9925 32.7764 11.5819C32.547 11.1659 32.4324 10.6779 32.4324 10.1179C32.4324 9.55785 32.547 9.07252 32.7764 8.66185C33.0057 8.24585 33.3284 7.92585 33.7444 7.70185C34.1604 7.47252 34.6457 7.35785 35.2004 7.35785C35.707 7.35785 36.1524 7.44318 36.5364 7.61385C36.9257 7.77918 37.227 8.01918 37.4404 8.33385C37.659 8.64318 37.7684 9.01385 37.7684 9.44585V9.54985H36.8164V9.44585C36.8164 9.03518 36.683 8.72318 36.4164 8.50985C36.155 8.29652 35.7524 8.18985 35.2084 8.18985C34.787 8.18985 34.4377 8.25918 34.1604 8.39785C33.8884 8.53118 33.683 8.73918 33.5444 9.02185C33.411 9.30452 33.3444 9.66985 33.3444 10.1179C33.3444 10.5605 33.411 10.9259 33.5444 11.2139C33.683 11.4965 33.8884 11.7072 34.1604 11.8459C34.4377 11.9792 34.787 12.0459 35.2084 12.0459C35.7524 12.0459 36.155 11.9392 36.4164 11.7259C36.683 11.5125 36.8164 11.2005 36.8164 10.7899V10.6859H37.7684V10.7899C37.7684 11.2165 37.659 11.5872 37.4404 11.9019C37.227 12.2165 36.9257 12.4592 36.5364 12.6299C36.1524 12.7952 35.707 12.8779 35.2004 12.8779ZM41.0369 12.8779C40.4769 12.8779 39.9862 12.7659 39.5649 12.5419C39.1489 12.3125 38.8235 11.9925 38.5889 11.5819C38.3595 11.1659 38.2449 10.6779 38.2449 10.1179C38.2449 9.55785 38.3595 9.07252 38.5889 8.66185C38.8235 8.24585 39.1489 7.92585 39.5649 7.70185C39.9862 7.47252 40.4769 7.35785 41.0369 7.35785C41.6075 7.35785 42.1009 7.47252 42.5169 7.70185C42.9329 7.92585 43.2555 8.24585 43.4849 8.66185C43.7195 9.07252 43.8369 9.55785 43.8369 10.1179C43.8369 10.6779 43.7195 11.1659 43.4849 11.5819C43.2555 11.9925 42.9329 12.3125 42.5169 12.5419C42.1009 12.7659 41.6075 12.8779 41.0369 12.8779ZM41.0369 12.0459C41.4582 12.0459 41.8075 11.9792 42.0849 11.8459C42.3675 11.7072 42.5782 11.4965 42.7169 11.2139C42.8555 10.9259 42.9249 10.5605 42.9249 10.1179C42.9249 9.66985 42.8555 9.30452 42.7169 9.02185C42.5782 8.73918 42.3675 8.53118 42.0849 8.39785C41.8075 8.25918 41.4582 8.18985 41.0369 8.18985C40.6155 8.18985 40.2635 8.25918 39.9809 8.39785C39.7035 8.53118 39.4955 8.73918 39.3569 9.02185C39.2235 9.30452 39.1569 9.66985 39.1569 10.1179C39.1569 10.5605 39.2235 10.9259 39.3569 11.2139C39.4955 11.4965 39.7035 11.7072 39.9809 11.8459C40.2635 11.9792 40.6155 12.0459 41.0369 12.0459ZM47.0992 11.1819H44.8032V10.4059H47.0192C47.4245 10.4059 47.7285 10.3232 47.9312 10.1579C48.1392 9.99252 48.2432 9.70985 48.2432 9.30985C48.2432 8.91518 48.1392 8.63518 47.9312 8.46985C47.7285 8.29918 47.4245 8.21385 47.0192 8.21385H44.8032V7.43785H47.0992C47.4992 7.43785 47.8485 7.51252 48.1472 7.66185C48.4512 7.80585 48.6859 8.01652 48.8512 8.29385C49.0219 8.57118 49.1072 8.90985 49.1072 9.30985C49.1072 9.70452 49.0219 10.0405 48.8512 10.3179C48.6859 10.5952 48.4512 10.8085 48.1472 10.9579C47.8485 11.1072 47.4992 11.1819 47.0992 11.1819ZM45.3392 12.7979H44.4752V7.43785H45.3392V12.7979ZM50.4876 12.7979H49.6236V7.43785H50.4876V12.7979ZM53.9116 12.7979H49.8876V12.0219H53.9116V12.7979ZM53.7916 10.4859H49.8876V9.71785H53.7916V10.4859ZM53.9116 8.21385H49.8876V7.43785H53.9116V8.21385Z" fill="black"/>
</g>
<defs>
<clipPath id="clip0_4_546">
<rect x="0.0830078" y="0.797852" width="79.9814" height="19.4549" rx="4" fill="white"/>
</clipPath>
</defs>
</svg>
