<svg width="81" height="21" viewBox="0 0 81 21" fill="none" xmlns="http://www.w3.org/2000/svg">
<g clip-path="url(#clip0_4_550)">
<rect x="0.166016" y="0.797852" width="79.9814" height="19.4549" rx="4" fill="#39CF75"/>
<path d="M28.814 12.8779C28.286 12.8779 27.8407 12.8032 27.478 12.6539C27.1207 12.5045 26.8513 12.2939 26.67 12.0219C26.4887 11.7445 26.398 11.4192 26.398 11.0459V10.9979H27.262V11.1259C27.262 11.3392 27.31 11.5179 27.406 11.6619C27.502 11.8005 27.662 11.9072 27.886 11.9819C28.11 12.0512 28.4193 12.0859 28.814 12.0859C29.1553 12.0859 29.4273 12.0619 29.63 12.0139C29.8327 11.9605 29.9767 11.8805 30.062 11.7739C30.1527 11.6619 30.198 11.5232 30.198 11.3579C30.198 11.1232 30.1233 10.9525 29.974 10.8459C29.8247 10.7392 29.582 10.6539 29.246 10.5899L27.934 10.3739C27.6353 10.3152 27.3687 10.2299 27.134 10.1179C26.8993 10.0005 26.7153 9.84585 26.582 9.65385C26.454 9.45652 26.39 9.21118 26.39 8.91785C26.39 8.72585 26.4327 8.53652 26.518 8.34985C26.6033 8.16318 26.7367 7.99518 26.918 7.84585C27.0993 7.69652 27.334 7.57918 27.622 7.49385C27.9153 7.40318 28.2727 7.35785 28.694 7.35785C29.2167 7.35785 29.646 7.43785 29.982 7.59785C30.318 7.75785 30.566 7.97652 30.726 8.25385C30.8913 8.52585 30.974 8.83785 30.974 9.18985V9.23785H30.118V9.13385C30.118 8.91518 30.07 8.73385 29.974 8.58985C29.878 8.44052 29.7207 8.33118 29.502 8.26185C29.2833 8.18718 28.9873 8.14985 28.614 8.14985C28.2887 8.14985 28.0247 8.17652 27.822 8.22985C27.6247 8.28318 27.4807 8.36318 27.39 8.46985C27.2993 8.57118 27.254 8.70452 27.254 8.86985C27.254 9.01918 27.286 9.14185 27.35 9.23785C27.414 9.33385 27.5127 9.41118 27.646 9.46985C27.7793 9.52318 27.95 9.57385 28.158 9.62185L29.462 9.84585C29.8193 9.90985 30.1153 10.0059 30.35 10.1339C30.59 10.2619 30.7687 10.4245 30.886 10.6219C31.0033 10.8192 31.062 11.0485 31.062 11.3099C31.062 11.5819 30.9847 11.8379 30.83 12.0779C30.6753 12.3179 30.4327 12.5125 30.102 12.6619C29.7713 12.8059 29.342 12.8779 28.814 12.8779ZM32.5394 12.7979H31.6754V7.43785H32.5394V12.7979ZM35.9634 12.7979H31.9394V12.0219H35.9634V12.7979ZM35.8434 10.4859H31.9394V9.71785H35.8434V10.4859ZM35.9634 8.21385H31.9394V7.43785H35.9634V8.21385ZM37.5003 12.7979H36.6363V7.43785H37.5003V12.7979ZM40.8043 12.7979H36.8923V12.0219H40.8043V12.7979ZM42.2269 12.7979H41.3629V7.43785H42.2269V12.7979ZM45.6509 12.7979H41.6269V12.0219H45.6509V12.7979ZM45.5309 10.4859H41.6269V9.71785H45.5309V10.4859ZM45.6509 8.21385H41.6269V7.43785H45.6509V8.21385ZM48.9318 12.8779C48.3772 12.8779 47.8918 12.7659 47.4758 12.5419C47.0598 12.3125 46.7372 11.9925 46.5078 11.5819C46.2785 11.1659 46.1638 10.6779 46.1638 10.1179C46.1638 9.55785 46.2785 9.07252 46.5078 8.66185C46.7372 8.24585 47.0598 7.92585 47.4758 7.70185C47.8918 7.47252 48.3772 7.35785 48.9318 7.35785C49.4385 7.35785 49.8838 7.44318 50.2678 7.61385C50.6572 7.77918 50.9585 8.01918 51.1718 8.33385C51.3905 8.64318 51.4998 9.01385 51.4998 9.44585V9.54985H50.5478V9.44585C50.5478 9.03518 50.4145 8.72318 50.1478 8.50985C49.8865 8.29652 49.4838 8.18985 48.9398 8.18985C48.5185 8.18985 48.1692 8.25918 47.8918 8.39785C47.6198 8.53118 47.4145 8.73918 47.2758 9.02185C47.1425 9.30452 47.0758 9.66985 47.0758 10.1179C47.0758 10.5605 47.1425 10.9259 47.2758 11.2139C47.4145 11.4965 47.6198 11.7072 47.8918 11.8459C48.1692 11.9792 48.5185 12.0459 48.9398 12.0459C49.4838 12.0459 49.8865 11.9392 50.1478 11.7259C50.4145 11.5125 50.5478 11.2005 50.5478 10.7899V10.6859H51.4998V10.7899C51.4998 11.2165 51.3905 11.5872 51.1718 11.9019C50.9585 12.2165 50.6572 12.4592 50.2678 12.6299C49.8838 12.7952 49.4385 12.8779 48.9318 12.8779ZM54.8003 12.7979H53.9443V7.43785H54.8003V12.7979ZM56.9043 8.21385H51.8323V7.43785H56.9043V8.21385Z" fill="black"/>
</g>
<defs>
<clipPath id="clip0_4_550">
<rect x="0.166016" y="0.797852" width="79.9814" height="19.4549" rx="4" fill="white"/>
</clipPath>
</defs>
</svg>
