<svg width="81" height="20" viewBox="0 0 81 20" fill="none" xmlns="http://www.w3.org/2000/svg">
<g clip-path="url(#clip0_4_556)">
<rect x="0.0808105" y="0.294434" width="79.9814" height="19.4549" rx="4" fill="#A8BE22"/>
<path d="M29.803 12.3744C29.275 12.3744 28.8297 12.2998 28.467 12.1504C28.1097 12.0011 27.8404 11.7904 27.659 11.5184C27.4777 11.2411 27.387 10.9158 27.387 10.5424V10.4944H28.251V10.6224C28.251 10.8358 28.299 11.0144 28.395 11.1584C28.491 11.2971 28.651 11.4038 28.875 11.4784C29.099 11.5478 29.4084 11.5824 29.803 11.5824C30.1444 11.5824 30.4164 11.5584 30.619 11.5104C30.8217 11.4571 30.9657 11.3771 31.051 11.2704C31.1417 11.1584 31.187 11.0198 31.187 10.8544C31.187 10.6198 31.1124 10.4491 30.963 10.3424C30.8137 10.2358 30.571 10.1504 30.235 10.0864L28.923 9.87043C28.6244 9.81177 28.3577 9.72643 28.123 9.61443C27.8884 9.4971 27.7044 9.34243 27.571 9.15043C27.443 8.9531 27.379 8.70777 27.379 8.41443C27.379 8.22243 27.4217 8.0331 27.507 7.84643C27.5924 7.65977 27.7257 7.49177 27.907 7.34243C28.0884 7.1931 28.323 7.07577 28.611 6.99043C28.9044 6.89977 29.2617 6.85443 29.683 6.85443C30.2057 6.85443 30.635 6.93443 30.971 7.09443C31.307 7.25443 31.555 7.4731 31.715 7.75043C31.8804 8.02243 31.963 8.33443 31.963 8.68643V8.73443H31.107V8.63043C31.107 8.41177 31.059 8.23043 30.963 8.08643C30.867 7.9371 30.7097 7.82777 30.491 7.75843C30.2724 7.68377 29.9764 7.64643 29.603 7.64643C29.2777 7.64643 29.0137 7.6731 28.811 7.72643C28.6137 7.77977 28.4697 7.85977 28.379 7.96643C28.2884 8.06777 28.243 8.2011 28.243 8.36643C28.243 8.51577 28.275 8.63843 28.339 8.73443C28.403 8.83043 28.5017 8.90777 28.635 8.96643C28.7684 9.01977 28.939 9.07043 29.147 9.11843L30.451 9.34243C30.8084 9.40643 31.1044 9.50243 31.339 9.63043C31.579 9.75843 31.7577 9.9211 31.875 10.1184C31.9924 10.3158 32.051 10.5451 32.051 10.8064C32.051 11.0784 31.9737 11.3344 31.819 11.5744C31.6644 11.8144 31.4217 12.0091 31.091 12.1584C30.7604 12.3024 30.331 12.3744 29.803 12.3744ZM33.5284 12.2944H32.6644V6.93443H33.5284V12.2944ZM36.9524 12.2944H32.9284V11.5184H36.9524V12.2944ZM36.8324 9.98243H32.9284V9.21443H36.8324V9.98243ZM36.9524 7.71043H32.9284V6.93443H36.9524V7.71043ZM38.4893 12.2944H37.6253V6.93443H38.5533L40.9533 10.0704L41.6493 11.0704H41.7133L41.6733 10.1024V6.93443H42.5373V12.2944H41.6093L39.1933 9.16643L38.5213 8.22243H38.4573L38.4893 9.15043V12.2944ZM45.5843 12.3744C45.0563 12.3744 44.6109 12.2998 44.2483 12.1504C43.8909 12.0011 43.6216 11.7904 43.4403 11.5184C43.2589 11.2411 43.1683 10.9158 43.1683 10.5424V10.4944H44.0323V10.6224C44.0323 10.8358 44.0803 11.0144 44.1763 11.1584C44.2723 11.2971 44.4323 11.4038 44.6563 11.4784C44.8803 11.5478 45.1896 11.5824 45.5843 11.5824C45.9256 11.5824 46.1976 11.5584 46.4003 11.5104C46.6029 11.4571 46.7469 11.3771 46.8323 11.2704C46.9229 11.1584 46.9683 11.0198 46.9683 10.8544C46.9683 10.6198 46.8936 10.4491 46.7443 10.3424C46.5949 10.2358 46.3523 10.1504 46.0163 10.0864L44.7043 9.87043C44.4056 9.81177 44.1389 9.72643 43.9043 9.61443C43.6696 9.4971 43.4856 9.34243 43.3523 9.15043C43.2243 8.9531 43.1603 8.70777 43.1603 8.41443C43.1603 8.22243 43.2029 8.0331 43.2883 7.84643C43.3736 7.65977 43.5069 7.49177 43.6883 7.34243C43.8696 7.1931 44.1043 7.07577 44.3923 6.99043C44.6856 6.89977 45.0429 6.85443 45.4643 6.85443C45.9869 6.85443 46.4163 6.93443 46.7523 7.09443C47.0883 7.25443 47.3363 7.4731 47.4963 7.75043C47.6616 8.02243 47.7443 8.33443 47.7443 8.68643V8.73443H46.8883V8.63043C46.8883 8.41177 46.8403 8.23043 46.7443 8.08643C46.6483 7.9371 46.4909 7.82777 46.2723 7.75843C46.0536 7.68377 45.7576 7.64643 45.3843 7.64643C45.0589 7.64643 44.7949 7.6731 44.5923 7.72643C44.3949 7.77977 44.2509 7.85977 44.1603 7.96643C44.0696 8.06777 44.0243 8.2011 44.0243 8.36643C44.0243 8.51577 44.0563 8.63843 44.1203 8.73443C44.1843 8.83043 44.2829 8.90777 44.4163 8.96643C44.5496 9.01977 44.7203 9.07043 44.9283 9.11843L46.2323 9.34243C46.5896 9.40643 46.8856 9.50243 47.1203 9.63043C47.3603 9.75843 47.5389 9.9211 47.6563 10.1184C47.7736 10.3158 47.8323 10.5451 47.8323 10.8064C47.8323 11.0784 47.7549 11.3344 47.6003 11.5744C47.4456 11.8144 47.2029 12.0091 46.8723 12.1584C46.5416 12.3024 46.1123 12.3744 45.5843 12.3744ZM49.3097 12.2944H48.4457V6.93443H49.3097V12.2944ZM52.7337 12.2944H48.7097V11.5184H52.7337V12.2944ZM52.6137 9.98243H48.7097V9.21443H52.6137V9.98243ZM52.7337 7.71043H48.7097V6.93443H52.7337V7.71043Z" fill="black"/>
</g>
<defs>
<clipPath id="clip0_4_556">
<rect x="0.0808105" y="0.294434" width="79.9814" height="19.4549" rx="4" fill="white"/>
</clipPath>
</defs>
</svg>
