<svg width="81" height="20" viewBox="0 0 81 20" fill="none" xmlns="http://www.w3.org/2000/svg">
<g clip-path="url(#clip0_4_552)">
<rect x="0.0415039" y="0.545898" width="79.9814" height="19.4549" rx="4" fill="#BE2276"/>
<path d="M34.1856 12.6259C33.6576 12.6259 33.2123 12.5512 32.8496 12.4019C32.4923 12.2526 32.2229 12.0419 32.0416 11.7699C31.8603 11.4926 31.7696 11.1672 31.7696 10.7939V10.7459H32.6336V10.8739C32.6336 11.0872 32.6816 11.2659 32.7776 11.4099C32.8736 11.5486 33.0336 11.6552 33.2576 11.7299C33.4816 11.7992 33.7909 11.8339 34.1856 11.8339C34.5269 11.8339 34.7989 11.8099 35.0016 11.7619C35.2043 11.7086 35.3483 11.6286 35.4336 11.5219C35.5243 11.4099 35.5696 11.2712 35.5696 11.1059C35.5696 10.8712 35.4949 10.7006 35.3456 10.5939C35.1963 10.4872 34.9536 10.4019 34.6176 10.3379L33.3056 10.1219C33.0069 10.0632 32.7403 9.9779 32.5056 9.8659C32.2709 9.74856 32.0869 9.5939 31.9536 9.4019C31.8256 9.20457 31.7616 8.95923 31.7616 8.6659C31.7616 8.4739 31.8043 8.28456 31.8896 8.0979C31.9749 7.91123 32.1083 7.74323 32.2896 7.5939C32.4709 7.44456 32.7056 7.32723 32.9936 7.2419C33.2869 7.15123 33.6443 7.1059 34.0656 7.1059C34.5883 7.1059 35.0176 7.1859 35.3536 7.3459C35.6896 7.5059 35.9376 7.72457 36.0976 8.0019C36.2629 8.2739 36.3456 8.5859 36.3456 8.9379V8.9859H35.4896V8.8819C35.4896 8.66323 35.4416 8.4819 35.3456 8.3379C35.2496 8.18856 35.0923 8.07923 34.8736 8.0099C34.6549 7.93523 34.3589 7.8979 33.9856 7.8979C33.6603 7.8979 33.3963 7.92456 33.1936 7.9779C32.9963 8.03123 32.8523 8.11123 32.7616 8.2179C32.6709 8.31923 32.6256 8.45256 32.6256 8.6179C32.6256 8.76723 32.6576 8.8899 32.7216 8.9859C32.7856 9.0819 32.8843 9.15923 33.0176 9.2179C33.1509 9.27123 33.3216 9.3219 33.5296 9.3699L34.8336 9.5939C35.1909 9.6579 35.4869 9.7539 35.7216 9.8819C35.9616 10.0099 36.1403 10.1726 36.2576 10.3699C36.3749 10.5672 36.4336 10.7966 36.4336 11.0579C36.4336 11.3299 36.3563 11.5859 36.2016 11.8259C36.0469 12.0659 35.8043 12.2606 35.4736 12.4099C35.1429 12.5539 34.7136 12.6259 34.1856 12.6259ZM37.911 12.5459H37.047V7.1859H37.911V12.5459ZM41.375 12.5459H40.519V7.1859H41.375V12.5459ZM43.479 7.9619H38.407V7.1859H43.479V7.9619ZM44.8485 12.5459H43.9845V7.1859H44.8485V12.5459ZM48.2725 12.5459H44.2485V11.7699H48.2725V12.5459ZM48.1525 10.2339H44.2485V9.4659H48.1525V10.2339ZM48.2725 7.9619H44.2485V7.1859H48.2725V7.9619Z" fill="black"/>
</g>
<defs>
<clipPath id="clip0_4_552">
<rect x="0.0415039" y="0.545898" width="79.9814" height="19.4549" rx="4" fill="white"/>
</clipPath>
</defs>
</svg>
