<svg width="81" height="20" viewBox="0 0 81 20" fill="none" xmlns="http://www.w3.org/2000/svg">
<g clip-path="url(#clip0_4_558)">
<rect x="0.163818" y="0.294434" width="79.9814" height="19.4549" rx="4" fill="#7022BE"/>
<path d="M35.8392 12.3744C35.3112 12.3744 34.8658 12.2998 34.5032 12.1504C34.1458 12.0011 33.8765 11.7904 33.6952 11.5184C33.5138 11.2411 33.4232 10.9158 33.4232 10.5424V10.4944H34.2872V10.6224C34.2872 10.8358 34.3352 11.0144 34.4312 11.1584C34.5272 11.2971 34.6872 11.4038 34.9112 11.4784C35.1352 11.5478 35.4445 11.5824 35.8392 11.5824C36.1805 11.5824 36.4525 11.5584 36.6552 11.5104C36.8578 11.4571 37.0018 11.3771 37.0872 11.2704C37.1778 11.1584 37.2232 11.0198 37.2232 10.8544C37.2232 10.6198 37.1485 10.4491 36.9992 10.3424C36.8498 10.2358 36.6072 10.1504 36.2712 10.0864L34.9592 9.87043C34.6605 9.81177 34.3938 9.72643 34.1592 9.61443C33.9245 9.4971 33.7405 9.34243 33.6072 9.15043C33.4792 8.9531 33.4152 8.70777 33.4152 8.41443C33.4152 8.22243 33.4578 8.0331 33.5432 7.84643C33.6285 7.65977 33.7618 7.49177 33.9432 7.34243C34.1245 7.1931 34.3592 7.07577 34.6472 6.99043C34.9405 6.89977 35.2978 6.85443 35.7192 6.85443C36.2418 6.85443 36.6712 6.93443 37.0072 7.09443C37.3432 7.25443 37.5912 7.4731 37.7512 7.75043C37.9165 8.02243 37.9992 8.33443 37.9992 8.68643V8.73443H37.1432V8.63043C37.1432 8.41177 37.0952 8.23043 36.9992 8.08643C36.9032 7.9371 36.7458 7.82777 36.5272 7.75843C36.3085 7.68377 36.0125 7.64643 35.6392 7.64643C35.3138 7.64643 35.0498 7.6731 34.8472 7.72643C34.6498 7.77977 34.5058 7.85977 34.4152 7.96643C34.3245 8.06777 34.2792 8.2011 34.2792 8.36643C34.2792 8.51577 34.3112 8.63843 34.3752 8.73443C34.4392 8.83043 34.5378 8.90777 34.6712 8.96643C34.8045 9.01977 34.9752 9.07043 35.1832 9.11843L36.4872 9.34243C36.8445 9.40643 37.1405 9.50243 37.3752 9.63043C37.6152 9.75843 37.7938 9.9211 37.9112 10.1184C38.0285 10.3158 38.0872 10.5451 38.0872 10.8064C38.0872 11.0784 38.0098 11.3344 37.8552 11.5744C37.7005 11.8144 37.4578 12.0091 37.1272 12.1584C36.7965 12.3024 36.3672 12.3744 35.8392 12.3744ZM40.9485 12.3744C40.4205 12.3744 39.9752 12.2998 39.6125 12.1504C39.2552 12.0011 38.9859 11.7904 38.8045 11.5184C38.6232 11.2411 38.5325 10.9158 38.5325 10.5424V10.4944H39.3965V10.6224C39.3965 10.8358 39.4445 11.0144 39.5405 11.1584C39.6365 11.2971 39.7965 11.4038 40.0205 11.4784C40.2445 11.5478 40.5539 11.5824 40.9485 11.5824C41.2899 11.5824 41.5619 11.5584 41.7645 11.5104C41.9672 11.4571 42.1112 11.3771 42.1965 11.2704C42.2872 11.1584 42.3325 11.0198 42.3325 10.8544C42.3325 10.6198 42.2579 10.4491 42.1085 10.3424C41.9592 10.2358 41.7165 10.1504 41.3805 10.0864L40.0685 9.87043C39.7699 9.81177 39.5032 9.72643 39.2685 9.61443C39.0339 9.4971 38.8499 9.34243 38.7165 9.15043C38.5885 8.9531 38.5245 8.70777 38.5245 8.41443C38.5245 8.22243 38.5672 8.0331 38.6525 7.84643C38.7379 7.65977 38.8712 7.49177 39.0525 7.34243C39.2339 7.1931 39.4685 7.07577 39.7565 6.99043C40.0499 6.89977 40.4072 6.85443 40.8285 6.85443C41.3512 6.85443 41.7805 6.93443 42.1165 7.09443C42.4525 7.25443 42.7005 7.4731 42.8605 7.75043C43.0259 8.02243 43.1085 8.33443 43.1085 8.68643V8.73443H42.2525V8.63043C42.2525 8.41177 42.2045 8.23043 42.1085 8.08643C42.0125 7.9371 41.8552 7.82777 41.6365 7.75843C41.4179 7.68377 41.1219 7.64643 40.7485 7.64643C40.4232 7.64643 40.1592 7.6731 39.9565 7.72643C39.7592 7.77977 39.6152 7.85977 39.5245 7.96643C39.4339 8.06777 39.3885 8.2011 39.3885 8.36643C39.3885 8.51577 39.4205 8.63843 39.4845 8.73443C39.5485 8.83043 39.6472 8.90777 39.7805 8.96643C39.9139 9.01977 40.0845 9.07043 40.2925 9.11843L41.5965 9.34243C41.9539 9.40643 42.2499 9.50243 42.4845 9.63043C42.7245 9.75843 42.9032 9.9211 43.0205 10.1184C43.1379 10.3158 43.1965 10.5451 43.1965 10.8064C43.1965 11.0784 43.1192 11.3344 42.9645 11.5744C42.8099 11.8144 42.5672 12.0091 42.2365 12.1584C41.9059 12.3024 41.4765 12.3744 40.9485 12.3744ZM44.6739 12.2944H43.8099V6.93443H44.6739V12.2944ZM47.9779 12.2944H44.0659V11.5184H47.9779V12.2944Z" fill="black"/>
</g>
<defs>
<clipPath id="clip0_4_558">
<rect x="0.163818" y="0.294434" width="79.9814" height="19.4549" rx="4" fill="white"/>
</clipPath>
</defs>
</svg>
