<svg width="81" height="20" viewBox="0 0 81 20" fill="none" xmlns="http://www.w3.org/2000/svg">
<g clip-path="url(#clip0_4_554)">
<rect x="0.851807" y="0.545898" width="79.9814" height="19.4549" rx="4" fill="#2E22BE"/>
<path d="M30.7144 12.5459H29.4904L27.2024 7.1859H28.2264L30.0824 11.6739H30.1464L31.9864 7.1859H33.0024L30.7144 12.5459ZM35.753 10.5619H33.209V9.8259H35.753V10.5619ZM38.6404 12.6259C38.1124 12.6259 37.6671 12.5512 37.3044 12.4019C36.9471 12.2526 36.6778 12.0419 36.4964 11.7699C36.3151 11.4926 36.2244 11.1672 36.2244 10.7939V10.7459H37.0884V10.8739C37.0884 11.0872 37.1364 11.2659 37.2324 11.4099C37.3284 11.5486 37.4884 11.6552 37.7124 11.7299C37.9364 11.7992 38.2458 11.8339 38.6404 11.8339C38.9818 11.8339 39.2538 11.8099 39.4564 11.7619C39.6591 11.7086 39.8031 11.6286 39.8884 11.5219C39.9791 11.4099 40.0244 11.2712 40.0244 11.1059C40.0244 10.8712 39.9498 10.7006 39.8004 10.5939C39.6511 10.4872 39.4084 10.4019 39.0724 10.3379L37.7604 10.1219C37.4618 10.0632 37.1951 9.9779 36.9604 9.8659C36.7258 9.74856 36.5418 9.5939 36.4084 9.4019C36.2804 9.20457 36.2164 8.95923 36.2164 8.6659C36.2164 8.4739 36.2591 8.28456 36.3444 8.0979C36.4298 7.91123 36.5631 7.74323 36.7444 7.5939C36.9258 7.44456 37.1604 7.32723 37.4484 7.2419C37.7418 7.15123 38.0991 7.1059 38.5204 7.1059C39.0431 7.1059 39.4724 7.1859 39.8084 7.3459C40.1444 7.5059 40.3924 7.72457 40.5524 8.0019C40.7178 8.2739 40.8004 8.5859 40.8004 8.9379V8.9859H39.9444V8.8819C39.9444 8.66323 39.8964 8.4819 39.8004 8.3379C39.7044 8.18856 39.5471 8.07923 39.3284 8.0099C39.1098 7.93523 38.8138 7.8979 38.4404 7.8979C38.1151 7.8979 37.8511 7.92456 37.6484 7.9779C37.4511 8.03123 37.3071 8.11123 37.2164 8.2179C37.1258 8.31923 37.0804 8.45256 37.0804 8.6179C37.0804 8.76723 37.1124 8.8899 37.1764 8.9859C37.2404 9.0819 37.3391 9.15923 37.4724 9.2179C37.6058 9.27123 37.7764 9.3219 37.9844 9.3699L39.2884 9.5939C39.6458 9.6579 39.9418 9.7539 40.1764 9.8819C40.4164 10.0099 40.5951 10.1726 40.7124 10.3699C40.8298 10.5672 40.8884 10.7966 40.8884 11.0579C40.8884 11.3299 40.8111 11.5859 40.6564 11.8259C40.5018 12.0659 40.2591 12.2606 39.9284 12.4099C39.5978 12.5539 39.1684 12.6259 38.6404 12.6259ZM42.3658 12.5459H41.5018V7.1859H42.3658V12.5459ZM45.6299 12.6259C45.1072 12.6259 44.6485 12.5139 44.2539 12.2899C43.8592 12.0606 43.5525 11.7406 43.3339 11.3299C43.1152 10.9139 43.0059 10.4259 43.0059 9.8659C43.0059 9.3059 43.1232 8.82056 43.3579 8.4099C43.5925 7.9939 43.9232 7.6739 44.3499 7.4499C44.7765 7.22057 45.2752 7.1059 45.8459 7.1059C46.3525 7.1059 46.7979 7.18856 47.1819 7.3539C47.5712 7.5139 47.8752 7.74323 48.0939 8.0419C48.3125 8.34056 48.4219 8.6979 48.4219 9.1139V9.1779H47.4699V9.1139C47.4699 8.7299 47.3339 8.43923 47.0619 8.2419C46.7899 8.03923 46.3765 7.9379 45.8219 7.9379C45.3899 7.9379 45.0325 8.00723 44.7499 8.1459C44.4725 8.27923 44.2645 8.48723 44.1259 8.7699C43.9872 9.05256 43.9179 9.4179 43.9179 9.8659C43.9179 10.3086 43.9845 10.6739 44.1179 10.9619C44.2565 11.2446 44.4619 11.4552 44.7339 11.5939C45.0112 11.7272 45.3605 11.7939 45.7819 11.7939C46.2085 11.7939 46.5525 11.7539 46.8139 11.6739C47.0752 11.5886 47.2645 11.4526 47.3819 11.2659C47.5045 11.0792 47.5659 10.8366 47.5659 10.5379V10.3619L48.4219 10.3859V10.5139L47.7099 11.3859H47.5819C47.5072 11.6472 47.3819 11.8712 47.2059 12.0579C47.0352 12.2446 46.8165 12.3859 46.5499 12.4819C46.2885 12.5779 45.9819 12.6259 45.6299 12.6259ZM48.4219 12.5459H47.6379V11.1859L47.5659 11.0739V9.9139H48.4219V12.5459ZM48.4219 10.4659H45.5819V9.8099H48.4219V10.4659ZM50.0142 12.5459H49.1502V7.1859H50.0782L52.4782 10.3219L53.1742 11.3219H53.2382L53.1982 10.3539V7.1859H54.0622V12.5459H53.1342L50.7182 9.4179L50.0462 8.4739H49.9822L50.0142 9.4019V12.5459Z" fill="black"/>
</g>
<defs>
<clipPath id="clip0_4_554">
<rect x="0.851807" y="0.545898" width="79.9814" height="19.4549" rx="4" fill="white"/>
</clipPath>
</defs>
</svg>
