<svg width="80" height="21" viewBox="0 0 80 21" fill="none" xmlns="http://www.w3.org/2000/svg">
<g clip-path="url(#clip0_4_548)">
<rect y="0.797852" width="79.9814" height="19.4549" rx="4" fill="#83B1C5"/>
<path d="M34.648 12.8779C34.12 12.8779 33.6747 12.8032 33.312 12.6539C32.9547 12.5045 32.6853 12.2939 32.504 12.0219C32.3227 11.7445 32.232 11.4192 32.232 11.0459V10.9979H33.096V11.1259C33.096 11.3392 33.144 11.5179 33.24 11.6619C33.336 11.8005 33.496 11.9072 33.72 11.9819C33.944 12.0512 34.2533 12.0859 34.648 12.0859C34.9893 12.0859 35.2613 12.0619 35.464 12.0139C35.6667 11.9605 35.8107 11.8805 35.896 11.7739C35.9867 11.6619 36.032 11.5232 36.032 11.3579C36.032 11.1232 35.9573 10.9525 35.808 10.8459C35.6587 10.7392 35.416 10.6539 35.08 10.5899L33.768 10.3739C33.4693 10.3152 33.2027 10.2299 32.968 10.1179C32.7333 10.0005 32.5493 9.84585 32.416 9.65385C32.288 9.45652 32.224 9.21118 32.224 8.91785C32.224 8.72585 32.2667 8.53652 32.352 8.34985C32.4373 8.16318 32.5707 7.99518 32.752 7.84585C32.9333 7.69652 33.168 7.57918 33.456 7.49385C33.7493 7.40318 34.1067 7.35785 34.528 7.35785C35.0507 7.35785 35.48 7.43785 35.816 7.59785C36.152 7.75785 36.4 7.97652 36.56 8.25385C36.7253 8.52585 36.808 8.83785 36.808 9.18985V9.23785H35.952V9.13385C35.952 8.91518 35.904 8.73385 35.808 8.58985C35.712 8.44052 35.5547 8.33118 35.336 8.26185C35.1173 8.18718 34.8213 8.14985 34.448 8.14985C34.1227 8.14985 33.8587 8.17652 33.656 8.22985C33.4587 8.28318 33.3147 8.36318 33.224 8.46985C33.1333 8.57118 33.088 8.70452 33.088 8.86985C33.088 9.01918 33.12 9.14185 33.184 9.23785C33.248 9.33385 33.3467 9.41118 33.48 9.46985C33.6133 9.52318 33.784 9.57385 33.992 9.62185L35.296 9.84585C35.6533 9.90985 35.9493 10.0059 36.184 10.1339C36.424 10.2619 36.6027 10.4245 36.72 10.6219C36.8373 10.8192 36.896 11.0485 36.896 11.3099C36.896 11.5819 36.8187 11.8379 36.664 12.0779C36.5093 12.3179 36.2667 12.5125 35.936 12.6619C35.6053 12.8059 35.176 12.8779 34.648 12.8779ZM38.0694 12.7979H37.1094L39.5014 7.43785H40.7174L43.1094 12.7979H42.1334L40.4454 8.99785L40.1334 8.23785H40.0694L39.7574 8.99785L38.0694 12.7979ZM41.8694 11.4059H38.2934V10.6299H41.8694V11.4059ZM45.7574 12.8779C45.2294 12.8779 44.784 12.8032 44.4214 12.6539C44.064 12.5045 43.7947 12.2939 43.6134 12.0219C43.432 11.7445 43.3414 11.4192 43.3414 11.0459V10.9979H44.2054V11.1259C44.2054 11.3392 44.2534 11.5179 44.3494 11.6619C44.4454 11.8005 44.6054 11.9072 44.8294 11.9819C45.0534 12.0512 45.3627 12.0859 45.7574 12.0859C46.0987 12.0859 46.3707 12.0619 46.5734 12.0139C46.776 11.9605 46.92 11.8805 47.0054 11.7739C47.096 11.6619 47.1414 11.5232 47.1414 11.3579C47.1414 11.1232 47.0667 10.9525 46.9174 10.8459C46.768 10.7392 46.5254 10.6539 46.1894 10.5899L44.8774 10.3739C44.5787 10.3152 44.312 10.2299 44.0774 10.1179C43.8427 10.0005 43.6587 9.84585 43.5254 9.65385C43.3974 9.45652 43.3334 9.21118 43.3334 8.91785C43.3334 8.72585 43.376 8.53652 43.4614 8.34985C43.5467 8.16318 43.68 7.99518 43.8614 7.84585C44.0427 7.69652 44.2774 7.57918 44.5654 7.49385C44.8587 7.40318 45.216 7.35785 45.6374 7.35785C46.16 7.35785 46.5894 7.43785 46.9254 7.59785C47.2614 7.75785 47.5094 7.97652 47.6694 8.25385C47.8347 8.52585 47.9174 8.83785 47.9174 9.18985V9.23785H47.0614V9.13385C47.0614 8.91518 47.0134 8.73385 46.9174 8.58985C46.8214 8.44052 46.664 8.33118 46.4454 8.26185C46.2267 8.18718 45.9307 8.14985 45.5574 8.14985C45.232 8.14985 44.968 8.17652 44.7654 8.22985C44.568 8.28318 44.424 8.36318 44.3334 8.46985C44.2427 8.57118 44.1974 8.70452 44.1974 8.86985C44.1974 9.01918 44.2294 9.14185 44.2934 9.23785C44.3574 9.33385 44.456 9.41118 44.5894 9.46985C44.7227 9.52318 44.8934 9.57385 45.1014 9.62185L46.4054 9.84585C46.7627 9.90985 47.0587 10.0059 47.2934 10.1339C47.5334 10.2619 47.712 10.4245 47.8294 10.6219C47.9467 10.8192 48.0054 11.0485 48.0054 11.3099C48.0054 11.5819 47.928 11.8379 47.7734 12.0779C47.6187 12.3179 47.376 12.5125 47.0454 12.6619C46.7147 12.8059 46.2854 12.8779 45.7574 12.8779Z" fill="black"/>
</g>
<defs>
<clipPath id="clip0_4_548">
<rect y="0.797852" width="79.9814" height="19.4549" rx="4" fill="white"/>
</clipPath>
</defs>
</svg>
